<svg width="311" height="265" viewBox="0 0 311 265" fill="none" xmlns="http://www.w3.org/2000/svg">
<g filter="url(#filter0_d_144_22)">
<path d="M296.8 47.8V244.8C296.8 247.561 294.561 249.8 291.8 249.8H12.8C10.0386 249.8 7.80005 247.561 7.80005 244.8V44.8711C7.80005 43.545 8.32683 42.2732 9.26451 41.3355L42.3356 8.26445C43.2733 7.32677 44.545 6.79999 45.8711 6.79999H116.229C117.555 6.79999 118.827 7.32677 119.765 8.26445L152.836 41.3355C153.773 42.2732 155.045 42.8 156.371 42.8H291.8C294.561 42.8 296.8 45.0386 296.8 47.8Z" fill="#FFFC60"/>
<path d="M296.8 47.8V244.8C296.8 247.561 294.561 249.8 291.8 249.8H12.8C10.0386 249.8 7.80005 247.561 7.80005 244.8V44.8711C7.80005 43.545 8.32683 42.2732 9.26451 41.3355L42.3356 8.26445C43.2733 7.32677 44.545 6.79999 45.8711 6.79999H116.229C117.555 6.79999 118.827 7.32677 119.765 8.26445L152.836 41.3355C153.773 42.2732 155.045 42.8 156.371 42.8H291.8C294.561 42.8 296.8 45.0386 296.8 47.8Z" fill="url(#paint0_linear_144_22)"/>
<path d="M296.8 47.8V244.8C296.8 247.561 294.561 249.8 291.8 249.8H12.8C10.0386 249.8 7.80005 247.561 7.80005 244.8V44.8711C7.80005 43.545 8.32683 42.2732 9.26451 41.3355L42.3356 8.26445C43.2733 7.32677 44.545 6.79999 45.8711 6.79999H116.229C117.555 6.79999 118.827 7.32677 119.765 8.26445L152.836 41.3355C153.773 42.2732 155.045 42.8 156.371 42.8H291.8C294.561 42.8 296.8 45.0386 296.8 47.8Z" stroke="#D5B917" stroke-width="6"/>
<path d="M296.8 47.8V244.8C296.8 247.561 294.561 249.8 291.8 249.8H12.8C10.0386 249.8 7.80005 247.561 7.80005 244.8V44.8711C7.80005 43.545 8.32683 42.2732 9.26451 41.3355L42.3356 8.26445C43.2733 7.32677 44.545 6.79999 45.8711 6.79999H116.229C117.555 6.79999 118.827 7.32677 119.765 8.26445L152.836 41.3355C153.773 42.2732 155.045 42.8 156.371 42.8H291.8C294.561 42.8 296.8 45.0386 296.8 47.8Z" stroke="#633809" stroke-opacity="0.25" stroke-width="6"/>
</g>
<g filter="url(#filter1_d_144_22)">
<path d="M296.8 47.8V244.8C296.8 247.561 294.561 249.8 291.8 249.8H12.8C10.0386 249.8 7.80005 247.561 7.80005 244.8V47.8C7.80005 45.0386 10.0386 42.8 12.8 42.8H43.8L108.654 42.8L154.3 42.8H291.8C294.561 42.8 296.8 45.0386 296.8 47.8Z" fill="#FFFC60"/>
<path d="M296.8 47.8V244.8C296.8 247.561 294.561 249.8 291.8 249.8H12.8C10.0386 249.8 7.80005 247.561 7.80005 244.8V47.8C7.80005 45.0386 10.0386 42.8 12.8 42.8H43.8L108.654 42.8L154.3 42.8H291.8C294.561 42.8 296.8 45.0386 296.8 47.8Z" fill="url(#paint1_linear_144_22)"/>
<path d="M296.8 47.8V244.8C296.8 247.561 294.561 249.8 291.8 249.8H12.8C10.0386 249.8 7.80005 247.561 7.80005 244.8V47.8C7.80005 45.0386 10.0386 42.8 12.8 42.8H43.8L108.654 42.8L154.3 42.8H291.8C294.561 42.8 296.8 45.0386 296.8 47.8Z" stroke="#D5B917" stroke-width="6"/>
</g>
<defs>
<filter id="filter0_d_144_22" x="4.86374e-05" y="-1.23978e-05" width="310.6" height="264.6" filterUnits="userSpaceOnUse" color-interpolation-filters="sRGB">
<feFlood flood-opacity="0" result="BackgroundImageFix"/>
<feColorMatrix in="SourceAlpha" type="matrix" values="0 0 0 0 0 0 0 0 0 0 0 0 0 0 0 0 0 0 127 0" result="hardAlpha"/>
<feOffset dx="3" dy="4"/>
<feGaussianBlur stdDeviation="3.9"/>
<feComposite in2="hardAlpha" operator="out"/>
<feColorMatrix type="matrix" values="0 0 0 0 0.498554 0 0 0 0 0.443984 0 0 0 0 0.0308132 0 0 0 1 0"/>
<feBlend mode="normal" in2="BackgroundImageFix" result="effect1_dropShadow_144_22"/>
<feBlend mode="normal" in="SourceGraphic" in2="effect1_dropShadow_144_22" result="shape"/>
</filter>
<filter id="filter1_d_144_22" x="4.86374e-05" y="36" width="310.6" height="228.6" filterUnits="userSpaceOnUse" color-interpolation-filters="sRGB">
<feFlood flood-opacity="0" result="BackgroundImageFix"/>
<feColorMatrix in="SourceAlpha" type="matrix" values="0 0 0 0 0 0 0 0 0 0 0 0 0 0 0 0 0 0 127 0" result="hardAlpha"/>
<feOffset dx="3" dy="4"/>
<feGaussianBlur stdDeviation="3.9"/>
<feComposite in2="hardAlpha" operator="out"/>
<feColorMatrix type="matrix" values="0 0 0 0 0.498554 0 0 0 0 0.443984 0 0 0 0 0.0308132 0 0 0 1 0"/>
<feBlend mode="normal" in2="BackgroundImageFix" result="effect1_dropShadow_144_22"/>
<feBlend mode="normal" in="SourceGraphic" in2="effect1_dropShadow_144_22" result="shape"/>
</filter>
<linearGradient id="paint0_linear_144_22" x1="120.8" y1="-73.2" x2="121.3" y2="284.8" gradientUnits="userSpaceOnUse">
<stop stop-color="#FFFC60"/>
<stop offset="1" stop-color="#AE813E"/>
</linearGradient>
<linearGradient id="paint1_linear_144_22" x1="152.8" y1="69.8" x2="152.8" y2="737.8" gradientUnits="userSpaceOnUse">
<stop stop-color="#FFFC60"/>
<stop offset="1" stop-color="#AE813E"/>
</linearGradient>
</defs>
</svg>
